<?xml version="1.0" encoding="utf-8"?>
<!-- Generator: Adobe Illustrator 28.2.0, SVG Export Plug-In . SVG Version: 6.00 Build 0)  -->
<svg version="1.1" id="Layer_1" xmlns="http://www.w3.org/2000/svg" xmlns:xlink="http://www.w3.org/1999/xlink" x="0px" y="0px"
	 viewBox="0 0 1190.55 841.89" style="enable-background:new 0 0 1190.55 841.89;" xml:space="preserve">
<style type="text/css">
	.st0{fill:#7F1618;}
	.st1{fill:#7F171A;}
	.st2{fill:#FFFFFF;}
	.st3{fill:none;stroke:#7F171A;stroke-width:17;stroke-linecap:round;stroke-linejoin:round;stroke-miterlimit:10;}
</style>
<path class="st0" d="M450.13,471.22c-0.22,4.48-2.79,7.22-6.99,7.33c-3.69,0.11-6.21-2.29-6.43-6.32c-0.23-3.86,1.45-6.6,5.42-7.16
	C446.72,464.4,449.07,467.03,450.13,471.22z"/>
<path class="st0" d="M834.16,450.65c-1.02,165.76-96.38,267.08-227.68,276.69c11.76-11.26,25.61-20.22,38.33-30.45
	c38.82-31.33,46.09-58.29,28.25-104.84c-1.85-4.81-5.26-9.28-4.31-15.32c23.05,8.28,34.85,26.9,46.66,48.05
	c5.87-34.07,0.11-62.43-22.1-86.43c-1.4-0.5-2.13-1.23-0.56-2.35c0.22,0,1.01,0.9,1.51,1.34c46.26,6.44,64.28,41.74,79.94,79.83
	c24.5-44.19-6.72-143.99-92.42-155.96c23.05-5.37,42.57-4.03,61.37,4.7c18.63,8.61,32.22,22.77,42.57,41.28
	c1.29-5.54,0.62-9.4-1.06-13.59c-22.04-55.66-76.97-87.44-135.77-76.47c-35.58,6.71-66.07,22.54-76.98,60.75
	c-6.87,24-0.66,47.32,7.61,70.2c5.54,15.22,0.62,25.63-12.98,29.43c-12.69,3.58-25.9-4.36-29.59-17.68
	c-2.35-8.39-2.24-17-1.56-25.51c1.9-23.77-6.83-43.29-22.44-60.58c-4.92-5.48-11.41-9.96-14.76-18.13c4.81,0.84,8.5,1.57,12.3,2.13
	c10.13,1.62,18.97-0.17,23.66-10.4c4.65-10.02,0.68-18.52-6.32-25.57c-5.09-5.2-11.63-8.33-18.9-10.24
	c-8.51-2.12-16.84-0.11-25.68,0.45c2.74-7.61,11.3-6.6,14.99-11.86c-15.94-8.61-31.83-7.49-48.11,0.67
	c-2.85-10.85-2.57-22.82-15.94-28.3c1.96,16.39-6.66,27.18-15.33,37.81c-8.33,10.24-11.91,21.54-9.9,34.57
	c2.24,14.66-0.11,24.45-8.73,36.14c-2.23,3.02-5.76,5.2,1.07,8.11c24.33,10.3,26.79,16.45,18.85,42.29
	c-5.04,16.28-11.24,32.28-14.88,48.9c-7.28,33.39,4.5,80.88,27.84,112.36c-33.39-17.22-61.81-41.13-78.89-72.63
	c-49.02-90.38-6.12-198.7,66.12-271.52c23.64-23.83,44.6-50.15,65.41-76.45c32.38-40.92,50.13-86.97,47.33-139.91
	c-0.94-17.38-4.55-34.28-8.65-51.13c0-0.02,0-0.02,0-0.04c-0.43-1.71,1.22-3.2,2.82-2.49c100.62,43.05,178.24,139.41,175.39,260.96
	c-0.08,3.85-0.25,7.73-0.51,11.63c-0.21,3.3,0.93,6.08,2.83,8.1c3.92,4.24,11.1,5.12,15.9,0.18c26.99-27.7,40.63-62.33,42.88-104.03
	c12.59,13.35,22.81,26.55,31.74,40.77c26.69,42.47,38.11,88.88,38.26,138.21c0.02,3.23-0.24,6.78-0.32,10.05
	C833.38,446.16,834.31,448.86,834.16,450.65z"/>
<path class="st1" d="M552.39,478.71c-0.22-0.09-0.34-0.21-0.09-0.39c0.02-0.01,0.16,0.15,0.24,0.22
	C552.49,478.6,552.44,478.65,552.39,478.71z"/>
<path class="st2" d="M743.15,465.91c18.63,8.61,32.22,22.77,42.57,41.28c1.29-5.54,0.62-9.4-1.06-13.59
	c-22.04-55.66-76.97-87.44-135.77-76.47c-35.58,6.71-66.07,22.54-76.98,60.75c-6.87,24-0.66,47.32,7.61,70.2
	c5.54,15.22,0.62,25.63-12.98,29.43c-12.69,3.58-25.9-4.36-29.59-17.68c-2.35-8.39-2.24-17-1.56-25.51
	c1.9-23.77-6.83-43.29-22.44-60.58c-4.92-5.48-11.41-9.96-14.76-18.13c4.81,0.84,8.5,1.57,12.3,2.13
	c10.13,1.62,18.97-0.17,23.66-10.4c4.65-10.02,0.68-18.52-6.32-25.57c-5.09-5.2-11.63-8.33-18.9-10.24
	c-8.51-2.12-16.84-0.11-25.68,0.45c2.74-7.61,11.3-6.6,14.99-11.86c-15.94-8.61-31.83-7.49-48.11,0.67
	c-2.85-10.85-2.57-22.82-15.94-28.3c1.96,16.39-6.66,27.18-15.33,37.81c-8.33,10.24-11.91,21.54-9.9,34.57
	c2.24,14.66-0.11,24.45-8.73,36.14c-2.23,3.02-5.76,5.2,1.07,8.11c24.33,10.3,26.79,16.45,18.85,42.29
	c-5.04,16.28-11.24,32.28-14.88,48.9c-7.28,33.39,4.5,80.88,27.84,112.36c43.01,22.18,94.27,33.26,140.22,35.17
	c11.27,0.47,22.33,0.3,33.15-0.5c11.76-11.26,25.61-20.22,38.33-30.45c38.82-31.33,46.09-58.29,28.25-104.84
	c-1.85-4.81-5.26-9.28-4.31-15.32c23.05,8.28,34.85,26.9,46.66,48.05c5.87-34.07,0.11-62.43-22.1-86.43
	c-1.4-0.5-2.13-1.23-0.56-2.35c0.22,0,1.01,0.9,1.51,1.34c46.26,6.44,64.28,41.74,79.94,79.83c24.5-44.19-6.72-143.99-92.42-155.96
	C704.83,455.84,724.35,457.18,743.15,465.91z M443.14,478.55c-3.69,0.11-6.21-2.29-6.43-6.32c-0.23-3.86,1.45-6.6,5.42-7.16
	c4.59-0.67,6.94,1.96,8,6.15C449.91,475.7,447.34,478.44,443.14,478.55z"/>
<g>
	<path class="st3" d="M321.66,427.27c4.29-12.49,9.59-24.8,15.96-36.84c20.95-39.64,58.42-78.76,93.43-101.74"/>
	<path class="st3" d="M287.09,406.74c3.92-12.18,8.72-24.21,14.42-36.03c18.56-38.44,44.82-70.76,76.17-96.07
		c8.59-6.93,31.25-21.64,40.54-27.5"/>
</g>
</svg>
